<svg width="25" height="25" viewBox="0 0 25 25" xmlns="http://www.w3.org/2000/svg">
  <style>
    .t { fill: #ffffff; transition: fill 0.3s; } /* Dark text for light mode */
    .d { fill: #4f46e5; }
    
    #dark-group:target .t { fill: #0f172a; } 
  </style>
  <g id="dark-group">
    <path class="t" d="M11.2 11h2.2v6.1c0 1.3-.3 2.3-.9 3-.6.7-1.5 1-2.7 1-.5 0-.9-.1-1.3-.2v-1.8c.3.1.6.1.8.1.6 0 1-.2 1.3-.5.3-.3.4-.8.4-1.6V11zM15.4 11h3.3c1.2 0 2.2.3 2.9 1 .7.7 1 1.7 1 3v2.3c0 1.3-.3 2.3-1 3-.7.7-1.7 1-2.9 1h-3.3V11zm2.2 8.3h1.1c.6 0 1-.2 1.3-.5.3-.3.5-.8.5-1.5v-2.1c0-.7-.2-1.2-.5-1.5-.3-.3-.7-.5-1.3-.5h-1.1v6.1z"/>
    <circle class="d" cx="24" cy="19.5" r="2.5"/>
  </g>
</svg>